<svg width="20" height="20" viewBox="0 0 20 20" fill="none" xmlns="http://www.w3.org/2000/svg">
<circle cx="10" cy="10" r="8" fill="#FF334B"/>
<path fill-rule="evenodd" clip-rule="evenodd" d="M9.75 11.5C10.1642 11.5 10.5 11.1642 10.5 10.75L10.5 6.75C10.5 6.33579 10.1642 6 9.75 6C9.33579 6 9 6.33579 9 6.75V10.75C9 11.1642 9.33579 11.5 9.75 11.5ZM9.75 14C10.1642 14 10.5 13.6642 10.5 13.25C10.5 12.8358 10.1642 12.5 9.75 12.5C9.33579 12.5 9 12.8358 9 13.25C9 13.6642 9.33579 14 9.75 14Z" fill="white"/>
</svg>
