<svg width="20" height="20" viewBox="0 0 20 20" fill="none" xmlns="http://www.w3.org/2000/svg">
<g clip-path="url(#clip0_2313_16782)">
<mask id="path-2-inside-1_2313_16782" fill="white">
<path d="M2 5C2 4.44772 2.44772 4 3 4H17C17.5523 4 18 4.44772 18 5V17C18 17.5523 17.5523 18 17 18H3C2.44772 18 2 17.5523 2 17V5Z"/>
</mask>
<path d="M2 5C2 4.44772 2.44772 4 3 4H17C17.5523 4 18 4.44772 18 5V17C18 17.5523 17.5523 18 17 18H3C2.44772 18 2 17.5523 2 17V5Z" stroke="#111111" stroke-width="3" mask="url(#path-2-inside-1_2313_16782)"/>
<path d="M6 3V4.5" stroke="#111111" stroke-width="1.5" stroke-linecap="round"/>
<path d="M14 3V4.5" stroke="#111111" stroke-width="1.5" stroke-linecap="round"/>
<rect x="6" y="8" width="1.5" height="1.5" fill="#111111"/>
<rect x="9.25" y="8" width="1.5" height="1.5" fill="#111111"/>
<rect x="9.25" y="11" width="1.5" height="1.5" fill="#111111"/>
<rect x="12.5" y="8" width="1.5" height="1.5" fill="#111111"/>
<rect x="6" y="11" width="1.5" height="1.5" fill="#111111"/>
</g>
<defs>
<clipPath id="clip0_2313_16782">
<rect width="20" height="20" rx="6" fill="white"/>
</clipPath>
</defs>
</svg>
